<svg xmlns="http://www.w3.org/2000/svg" version="1.1" xmlns:xlink="http://www.w3.org/1999/xlink" xmlns:svgjs="http://svgjs.dev/svgjs" width="1000" height="343" viewBox="0 0 1000 343"><g transform="matrix(1,0,0,1,-0.6060606060606233,-0.23625716487853765)"><svg viewBox="0 0 396 136" data-background-color="#ffffff" preserveAspectRatio="xMidYMid meet" height="343" width="1000" xmlns="http://www.w3.org/2000/svg" xmlns:xlink="http://www.w3.org/1999/xlink"><g id="tight-bounds" transform="matrix(1,0,0,1,0.2400000000000091,0.0936763102725422)"><svg viewBox="0 0 395.52 135.81264737945492" height="135.81264737945492" width="395.52"><g><svg viewBox="0 0 395.52 135.81264737945492" height="135.81264737945492" width="395.52"><g><svg viewBox="0 0 395.52 135.81264737945492" height="135.81264737945492" width="395.52"><g id="textblocktransform"><svg viewBox="0 0 395.52 135.81264737945492" height="135.81264737945492" width="395.52" id="textblock"><g><svg viewBox="0 0 395.52 135.81264737945492" height="135.81264737945492" width="395.52"><rect width="395.52" height="135.81264737945492" x="0" y="0" opacity="1" fill="#804dee" data-fill-palette-color="tertiary"></rect><g transform="matrix(1,0,0,1,23.607599999999998,23.60759999999999)"><svg width="348.3048" viewBox="2.8600001335144043 -35.54999923706055 139.72999572753906 35.54999923706055" height="88.59744737945493" data-palette-color="#ffffff"><path d="M19.36 0L12.87-13.72 10.03-10.16 10.03 0 2.86 0 2.86-35.55 10.03-35.55 10.03-20.04 12.3-23.88 18.92-35.55 27.71-35.55 17.53-19.92 27.88 0 19.36 0ZM38.01-35.55L38.01 0 30.83 0 30.83-35.55 38.01-35.55ZM60.15 0L54.8-12.99 51.24-12.99 51.24 0 44.06 0 44.06-35.55 55.51-35.55Q60.91-35.55 63.85-32.75 66.79-29.96 66.79-24.8L66.79-24.8Q66.79-17.72 61.64-14.89L61.64-14.89 67.87-0.34 67.87 0 60.15 0ZM51.24-29.57L51.24-18.97 55.32-18.97Q57.47-18.97 58.54-20.4 59.61-21.83 59.61-24.22L59.61-24.22Q59.61-29.57 55.44-29.57L55.44-29.57 51.24-29.57ZM93.52-35.55L93.52-29.57 84.73-29.57 84.73 0 77.53 0 77.53-29.57 68.89-29.57 68.89-35.55 93.52-35.55ZM116.01-21.17L116.01-15.38 104.82-15.38 104.82-5.96 118.06-5.96 118.06 0 97.65 0 97.65-35.55 118.01-35.55 118.01-29.57 104.82-29.57 104.82-21.17 116.01-21.17ZM140.54-21.17L140.54-15.38 129.36-15.38 129.36-5.96 142.59-5.96 142.59 0 122.18 0 122.18-35.55 142.54-35.55 142.54-29.57 129.36-29.57 129.36-21.17 140.54-21.17Z" opacity="1" transform="matrix(1,0,0,1,0,0)" fill="#ffffff" class="wordmark-text-0" data-fill-palette-color="quaternary" id="text-0"></path></svg></g></svg></g></svg></g></svg></g></svg></g><defs></defs></svg><rect width="395.52" height="135.81264737945492" fill="none" stroke="none" visibility="hidden"></rect></g></svg></g></svg>