<svg xmlns="http://www.w3.org/2000/svg" version="1.1" xmlns:xlink="http://www.w3.org/1999/xlink" xmlns:svgjs="http://svgjs.dev/svgjs" width="2000" height="1250" viewBox="0 0 2000 1250"><g transform="matrix(1,0,0,1,0,0)"><svg viewBox="0 0 512 320" data-background-color="#ffffff" preserveAspectRatio="xMidYMid meet" height="1250" width="2000" xmlns="http://www.w3.org/2000/svg" xmlns:xlink="http://www.w3.org/1999/xlink"><g id="tight-bounds" transform="matrix(1,0,0,1,0,0)"><svg viewBox="0 0 512 320" height="320" width="512"><g><svg></svg></g><g><svg viewBox="0 0 512 320" height="320" width="512"><g><path xmlns="http://www.w3.org/2000/svg" d="M96 160c0-88.366 71.634-160 160-160 88.366 0 160 71.634 160 160 0 88.366-71.634 160-160 160-88.366 0-160-71.634-160-160z" fill="#804dee" fill-rule="nonzero" stroke="none" stroke-width="1" stroke-linecap="butt" stroke-linejoin="miter" stroke-miterlimit="10" stroke-dasharray="" stroke-dashoffset="0" font-family="none" font-weight="none" font-size="none" text-anchor="none" style="mix-blend-mode: normal" data-fill-palette-color="tertiary"></path></g><g transform="matrix(1,0,0,1,153.6,112.52453928225023)"><svg viewBox="0 0 204.8 94.95092143549952" height="94.95092143549952" width="204.8"><g><svg viewBox="0 0 204.8 94.95092143549952" height="94.95092143549952" width="204.8"><g><svg viewBox="0 0 204.8 94.95092143549952" height="94.95092143549952" width="204.8"><g><svg viewBox="0 0 204.8 94.95092143549952" height="94.95092143549952" width="204.8"><g id="textblocktransform"><svg viewBox="0 0 204.8 94.95092143549952" height="94.95092143549952" width="204.8" id="textblock"><g><svg viewBox="0 0 204.8 94.95092143549952" height="94.95092143549952" width="204.8"><g transform="matrix(1,0,0,1,0,0)"><svg width="204.8" viewBox="3.740000009536743 -35.0099983215332 75.51000213623047 35.0099983215332" height="94.95092143549952" data-palette-color="#ffffff"><path d="M22.39-17.5L40.38 0 31.37 0 17.09-14.31 12.62-14.31 12.62-20.7 17.09-20.7 31.37-35.01 40.38-35.01 22.39-17.5ZM10.08-35.01L10.08 0 3.74 0 3.74-35.01 10.08-35.01ZM79.25-23.24L79.25-20.36Q79.25-18.19 78.71-16.48 78.17-14.77 77.26-13.46 76.34-12.16 75.14-11.23 73.95-10.3 72.64-9.72 71.34-9.13 70-8.86 68.67-8.59 67.5-8.59L67.5-8.59 53.15-8.59 53.15-14.94 67.5-14.94Q68.72-15.04 69.71-15.44 70.7-15.84 71.41-16.53 72.12-17.21 72.51-18.18 72.9-19.14 72.9-20.36L72.9-20.36 72.9-23.24Q72.78-24.44 72.39-25.44 71.99-26.44 71.32-27.15 70.65-27.86 69.7-28.26 68.75-28.66 67.5-28.66L67.5-28.66 53.2-28.66Q51.93-28.66 51.27-28 50.61-27.34 50.61-26.1L50.61-26.1 50.61 0 44.26 0 44.26-26.1Q44.26-28.54 45.15-30.25 46.04-31.96 47.37-33.01 48.7-34.06 50.27-34.53 51.83-35.01 53.15-35.01L53.15-35.01 67.5-35.01Q69.65-35.01 71.36-34.46 73.07-33.91 74.37-33 75.68-32.08 76.6-30.88 77.51-29.69 78.11-28.38 78.71-27.08 78.98-25.74 79.25-24.41 79.25-23.24L79.25-23.24Z" opacity="1" transform="matrix(1,0,0,1,0,0)" fill="#ffffff" class="wordmark-text-0" data-fill-palette-color="quaternary" id="text-0"></path></svg></g></svg></g></svg></g></svg></g></svg></g></svg></g></svg></g></svg></g><defs></defs></svg><rect width="512" height="320" fill="none" stroke="none" visibility="hidden"></rect></g></svg></g></svg>